HIERARCHY
ROOT pelvis
{
  OFFSET 0 100 0
  CHANNELS 6 Xposition Yposition Zposition Zrotation Xrotation Yrotation
  JOINT pelvis_right_femur
  {
    OFFSET -10.78128 -3.44521 -0.5502486
    CHANNELS 3 Zrotation Xrotation Yrotation
    JOINT right_femur_tibia
    {
      OFFSET -0.8047443 -44.0398 -0.1307829
      CHANNELS 3 Zrotation Xrotation Yrotation
      JOINT right_tibia_foot
      {
        OFFSET 3.006224 -47.83518 -5
        CHANNELS 3 Zrotation Xrotation Yrotation
        End Site
        {
          OFFSET 0 -5 15
        }
      }
    }
  }
  JOINT pelvis_left_femur
  {
    OFFSET 10.78128 -3.44521 -0.5502486
    CHANNELS 3 Zrotation Xrotation Yrotation
    JOINT left_femur_tibia
    {
      OFFSET 0.8047443 -44.0398 -0.1307829
      CHANNELS 3 Zrotation Xrotation Yrotation
      JOINT left_tibia_foot
      {
        OFFSET -4.370144 -48.10324 -4.275266
        CHANNELS 3 Zrotation Xrotation Yrotation
        End Site
        {
          OFFSET 0 -5 15
        }
      }
    }
  }
  JOINT pelvis_spine1
  {
    OFFSET 0 6.468898 -3.129235
    CHANNELS 3 Zrotation Xrotation Yrotation
    JOINT spine1
    {
      OFFSET 0 23.15396 4.99043
      CHANNELS 3 Zrotation Xrotation Yrotation
      JOINT spine2
      {
        OFFSET 0 20.79997 -5.064912
        CHANNELS 3 Zrotation Xrotation Yrotation
        JOINT neck
        {
          OFFSET 0 14.38658 9.616178
          CHANNELS 3 Zrotation Xrotation Yrotation
          End Site
          {
            OFFSET 0 20 0
          }
        }
      }
      JOINT right_manubrium
      {
        OFFSET -5.722621 16.35077 3.967754
        CHANNELS 3 Zrotation Xrotation Yrotation
        JOINT right_clavicle
        {
          OFFSET -13.16364 1.694482 -4.693211
          CHANNELS 3 Zrotation Xrotation Yrotation
          JOINT right_humerus
          {
            OFFSET -28.5034 -0.3100689 -2.792744
            CHANNELS 3 Zrotation Xrotation Yrotation
            JOINT right_radius
            {
              OFFSET -25.15693 0.02248979 -1.271978
              CHANNELS 3 Zrotation Xrotation Yrotation
              End Site
              {
                OFFSET -15 0 0
              }
            }
          }
        }
      }
      JOINT left_manubrium
      {
        OFFSET 5.722621 16.35077 3.967754
        CHANNELS 3 Zrotation Xrotation Yrotation
        JOINT left_clavicle
        {
          OFFSET 13.16364 1.694482 -4.693211
          CHANNELS 3 Zrotation Xrotation Yrotation
          JOINT left_humerus
          {
            OFFSET 29.39168 -1.063119 -2.237045
            CHANNELS 3 Zrotation Xrotation Yrotation
            JOINT left_radius
            {
              OFFSET 24.59957 -0.9528479 0.9047498
              CHANNELS 3 Zrotation Xrotation Yrotation
              End Site
              {
                OFFSET 15 -0 -0
              }
            }
          }
        }
      }
    }
  }
}
MOTION
Frames: 23
Frame Time: 0.0416666666667
0 103.5113 0 2.180486 -1.216823 0.2883578 1.249535 -10.06298 8.750496 -0 34.76741 -0 -5.277802 -17.99004 -2.433819 -8.031812 10.10769 -23.51817 -0 5.122651 -0 7.686939 -16.14568 26.58669 -4.330743 -5.050932 4.937146 2.003009 9.219639 -7.755395 0.8318334 22.82365 7.176046 3.247318 -23.10746 8.812505 6.374616 -19.7736 11.57335 86.31602 35.95095 -19.78584 -0 0 16.26018 -7.576266 8.243859 4.622632 5.478578 -19.48604 -1.69439 -94.77853 29.74649 22.95156 0 0 -15.98452 3.505277 17.90131 9.564182
0.3196598 103.5106 1.350087 2.021835 -1.115955 0.4838081 1.531712 -11.04152 8.641913 -0 34.61969 -0 -5.341415 -17.6173 -2.507459 -7.884373 10.26269 -23.40647 -0 5.154122 -0 7.55601 -16.42118 26.42562 -4.258222 -4.84759 4.866389 2.079463 9.193259 -7.790858 0.8435028 22.72618 7.198072 3.267515 -23.25264 8.840828 6.36607 -19.73263 11.57321 86.31222 35.93984 -19.8385 -0 0 16.14378 -7.611341 8.279827 4.646519 5.534413 -19.54975 -1.694196 -94.64468 29.69741 22.7854 0 0 -16.31986 3.590178 17.80945 9.518608
0.6359136 103.4465 2.812987 1.801916 -0.9110995 0.5870524 1.898034 -12.50783 8.370153 -0 33.23859 -0 -5.411763 -16.92801 -2.321768 -7.699078 10.4541 -23.18348 -0 5.250803 -0 7.336503 -16.86974 26.15081 -4.187797 -4.548704 4.829159 2.243786 9.136136 -7.807908 0.8623957 22.54398 7.226228 3.309335 -23.46356 8.860296 6.347031 -19.6277 11.58319 86.31393 35.92681 -19.96308 -0 0 15.89698 -7.658308 8.338872 4.66235 5.687645 -19.6673 -1.692317 -94.39043 29.60939 22.38352 0 0 -16.9941 3.757294 17.67825 9.383704
0.9648849 103.2577 4.458809 1.581791 -0.5748665 0.5936099 2.231975 -14.32384 7.91339 -0 30.06793 -0 -5.453157 -15.82698 -1.767008 -7.55321 10.67604 -22.82252 -0 5.475291 -0 7.01829 -17.49928 25.72554 -4.151927 -4.192885 4.872851 2.481445 9.04255 -7.764509 0.9086187 22.29167 7.247519 3.380077 -23.7213 8.873563 6.283924 -19.41621 11.60058 86.34798 35.91128 -20.19285 -0 0 15.49114 -7.717221 8.424287 4.665354 5.958504 -19.85836 -1.686577 -93.9945 29.48578 21.69745 0 0 -18.04254 4.000345 17.51129 9.140087
1.322287 102.8907 6.346021 1.424595 -0.1120549 0.5421208 2.419823 -16.2668 7.302051 -0 25.08379 -0 -5.448484 -14.33111 -0.8558289 -7.495808 10.93356 -22.31662 -0 5.889147 -0 6.584109 -18.26069 25.10768 -4.168961 -3.838938 4.990356 2.741587 8.920392 -7.659815 0.9777348 22.02077 7.26135 3.471524 -23.99535 8.885395 6.157175 -19.12161 11.59331 86.43417 35.89291 -20.50698 -0 0 14.94735 -7.790832 8.537317 4.663527 6.3312 -20.12424 -1.660219 -93.46531 29.33235 20.77106 0 0 -19.3693 4.285828 17.31086 8.818266
1.710176 102.3276 8.514891 1.370647 0.4526581 0.4978255 2.403484 -18.06504 6.585182 -0 18.72761 -0 -5.402757 -12.58413 0.3038445 -7.534197 11.23666 -21.66533 -0 6.559728 -0 5.999352 -19.05235 24.25141 -4.231761 -3.549083 5.123295 2.96015 8.783993 -7.539631 1.039003 21.79611 7.281634 3.563293 -24.24894 8.896864 5.968304 -18.80734 11.51687 86.59126 35.87232 -20.85307 -0 0 14.31524 -7.881572 8.679458 4.67279 6.755266 -20.44563 -1.602304 -92.83591 29.15487 19.71271 0 0 -20.77682 4.566239 17.07894 8.489491
2.119126 101.6021 11.03131 1.385286 1.101942 0.5378131 2.289093 -19.46591 5.775658 -0 11.88532 -0 -5.353202 -10.87258 1.522803 -7.632183 11.59032 -20.85477 -0 7.579251 -0 5.204039 -19.74037 23.13147 -4.277763 -3.345857 5.195569 3.112272 8.635433 -7.478923 1.060768 21.6325 7.327572 3.640402 -24.45541 8.903709 5.73795 -18.46101 11.38212 86.86506 35.84887 -21.23695 -0 0 13.61628 -7.984587 8.857189 4.704079 7.132731 -20.78122 -1.576792 -92.16746 28.95829 18.64123 0 0 -22.03543 4.804155 16.81896 8.238016
2.531517 100.799 13.98627 1.39582 1.787547 0.7436988 2.207158 -20.21795 4.955215 -0 5.615983 -0 -5.368102 -9.451423 2.627785 -7.704407 11.97372 -19.89283 -0 9.128413 -0 4.121153 -20.12448 21.73088 -4.220047 -3.2475 5.161232 3.20011 8.472386 -7.525734 1.033323 21.51905 7.396293 3.69465 -24.60773 8.891893 5.506576 -18.06231 11.21773 87.27093 35.82219 -21.67272 -0 0 12.86235 -8.102734 9.076339 4.765659 7.348193 -21.06767 -1.62955 -91.54505 28.74357 17.70611 0 0 -22.92334 4.966753 16.52912 8.127396
2.926617 100.0515 17.4746 1.313352 2.438888 1.17713 2.260542 -20.0533 4.267582 -0 0.9949832 -0 -5.537543 -8.492091 3.473733 -7.631621 12.31931 -18.81408 -0 11.48898 -0 2.671481 -19.90913 20.04463 -3.960841 -3.28017 5.008477 3.238075 8.292868 -7.690705 0.9608441 21.43607 7.465399 3.718081 -24.70758 8.837591 5.322117 -17.6075 11.05398 87.78601 35.79378 -22.15825 -0 0 12.06738 -8.250059 9.34101 4.865914 7.29375 -21.22558 -1.768388 -91.07047 28.50947 17.08117 0 0 -23.24146 5.023949 16.20271 8.199046
3.295932 99.5114 21.5384 1.076657 3.026243 1.794196 2.461488 -18.79107 3.789059 0 -1.477468 0 -5.911696 -7.988059 3.965725 -7.343779 12.45229 -17.66978 -0 14.95265 -0 0.8422707 -18.72822 18.12497 -3.432477 -3.456322 4.765288 3.235008 8.103577 -7.932058 0.8319838 21.37143 7.518389 3.690402 -24.73359 8.714867 5.193444 -17.11413 10.91905 88.35921 35.76892 -22.64831 -0 0 11.26084 -8.447884 9.650979 5.013334 6.958758 -21.20052 -1.974738 -90.82267 28.25458 16.8695 0 0 -22.93184 4.968093 15.83884 8.459036
3.644285 99.3033 26.14728 0.6993568 3.434476 2.441737 2.794475 -16.4461 3.540544 0 -2.095702 0 -6.45115 -7.956774 4.143406 -6.914303 12.12968 -16.50957 -0 19.8129 -0 -1.234985 -16.33751 16.12963 -2.651958 -3.726218 4.534779 3.189805 7.95355 -8.145092 0.6441096 21.34008 7.543472 3.601071 -24.64357 8.510468 5.106755 -16.61782 10.85906 88.917 35.7557 -23.05202 -0 0 10.50423 -8.721705 10.00145 5.221352 6.401825 -20.97733 -2.220907 -90.82923 27.97614 17.08301 0 0 -22.07877 4.807487 15.44117 8.872487
3.982864 99.491 31.19024 0.2923862 3.462007 2.892943 3.201575 -13.14311 3.489362 0 -1.759992 0 -7.038092 -8.492478 4.16368 -6.527082 11.01881 -15.36673 -0 26.34383 -0 -3.29671 -12.72906 14.3084 -1.740271 -3.972448 4.492343 3.091977 7.929868 -8.176442 0.4126404 21.3844 7.526192 3.45649 -24.38751 8.220679 5.052209 -16.16936 10.93838 89.36542 35.76662 -23.23995 -0 0 9.883033 -9.102419 10.38487 5.50833 5.718725 -20.58795 -2.473819 -91.06291 27.66821 17.65466 0 0 -20.87619 4.562004 15.01701 9.368069
4.325986 100.0616 36.49043 0.08045172 2.980363 2.988813 3.469494 -8.861124 3.49599 0 -1.374148 0 -7.537502 -9.659061 4.192399 -6.285708 8.717253 -14.22383 -0 34.46625 -0 -4.984556 -8.460218 12.95164 -0.963242 -4.05625 4.814869 2.924754 8.093895 -7.913996 0.1790141 21.55356 7.43714 3.286559 -23.96081 7.839433 5.079534 -15.82531 11.19498 89.6104 35.81764 -23.09256 -0 0 9.451812 -9.620244 10.79346 5.884862 4.993463 -20.14918 -2.693647 -91.41623 27.32555 18.43629 0 0 -19.57197 4.269287 14.57997 9.849585
4.682623 100.9435 41.85185 0.232224 1.991175 2.749314 3.388873 -3.626354 3.44902 0 -1.514518 0 -7.841453 -11.33667 4.33192 -6.160688 4.955784 -13.07665 -0 43.46899 -0 -6.096761 -4.356315 12.20738 -0.5550677 -3.910178 5.550388 2.679973 8.432675 -7.366199 -0.005280491 21.87976 7.247621 3.128419 -23.37073 7.370142 5.198448 -15.67157 11.59081 89.52911 35.92019 -22.49875 -0 0 9.277288 -10.31799 11.21073 6.36493 4.306391 -19.76041 -2.846119 -91.77956 26.94319 19.29042 0 0 -18.37847 3.972663 14.14589 10.23764
5.060494 102.0214 47.10882 0.8150142 0.6237496 2.395863 2.819548 2.392203 3.314593 0 -2.442092 0 -7.867785 -13.22921 4.626829 -6.037791 -0.3211382 -11.95572 -0 51.98039 -0 -6.584469 -1.294897 12.0928 -0.6576507 -3.562113 6.613615 2.360388 8.862678 -6.64393 -0.09138718 22.368 6.939484 3.015236 -22.62629 6.830471 5.35151 -15.8153 12.02209 88.97671 36.07159 -21.35138 -0 0 9.455367 -11.25646 11.6095 6.972156 3.752271 -19.47345 -2.900929 -92.06726 26.51825 20.11621 0 0 -17.45391 3.712412 13.7296 10.48332
5.46483 103.1656 52.15304 1.723137 -0.8335781 2.111409 1.8296 8.748133 3.164984 0 -4.104429 0 -7.581773 -15.04919 5.071433 -5.860102 -6.688 -10.95193 -0 58.29193 -0 -6.550978 0.3623687 12.48279 -1.198932 -3.135099 7.823228 1.97517 9.271587 -5.853162 -0.08146474 22.95815 6.54116 2.945267 -21.76517 6.262779 5.427719 -16.28164 12.3938 87.92225 36.23237 -19.63068 -0 0 10.06461 -12.48408 11.9605 7.731571 3.440653 -19.27118 -2.83595 -92.25416 26.06044 20.88074 0 0 -16.83497 3.494761 13.33436 10.60649
5.904138 104.2087 56.97788 2.772475 -2.128182 1.952576 0.6003698 15.00261 3.075969 0 -6.245875 0 -7.00522 -16.65831 5.623856 -5.558824 -13.557 -10.04037 -0 61.19227 -0 -6.148695 0.7911601 13.30607 -1.994416 -2.761813 8.9888 1.535136 9.583942 -5.076981 -0.01108792 23.55489 6.11009 2.89732 -20.85216 5.719338 5.339981 -17.03464 12.64449 86.42216 36.34117 -17.39539 -0 0 11.14363 -14.00963 12.23997 8.653685 3.40447 -19.08846 -2.656864 -92.36656 25.58516 21.61403 0 0 -16.44721 3.297722 12.95391 10.65724
6.394568 104.9419 61.69032 3.717922 -3.091303 1.865792 -0.5977001 20.78897 3.066647 0 -8.467126 0 -6.209542 -18.07381 6.211571 -4.983195 -20.27742 -9.027017 -0 60.04409 -0 -5.568774 0.5630875 14.57797 -2.792391 -2.548547 9.933285 1.058585 9.767506 -4.381909 0.06504964 24.04049 5.721109 2.840913 -19.97089 5.255824 5.047428 -17.997 12.74829 84.59634 36.33005 -14.76992 -0 0 12.68684 -15.79678 12.42993 9.728416 3.585854 -18.83915 -2.402695 -92.46195 25.11153 22.37787 0 0 -16.13504 3.080641 12.57679 10.70016
6.961079 105.1719 66.36441 4.304005 -3.651817 1.790204 -1.459693 25.8366 3.071604 0 -10.35631 0 -5.291035 -19.40826 6.759056 -3.95499 -26.22604 -7.654876 -0 54.88479 -0 -5.012856 0.2617914 16.30014 -3.343485 -2.52062 10.56702 0.6016816 9.821121 -3.808495 0.1092645 24.31344 5.427529 2.758195 -19.18283 4.906137 4.594749 -19.0674 12.74283 82.61295 36.15414 -11.9355 -0 0 14.58936 -17.74193 12.51879 10.90343 3.868219 -18.50802 -2.146864 -92.57363 24.6642 23.16305 0 0 -15.75448 2.813032 12.19935 10.79926
7.632097 104.8078 71.04868 4.435762 -3.834083 1.700207 -1.848064 30.03194 3.019697 0 -11.58874 0 -4.321337 -20.7149 7.22089 -2.471597 -30.98976 -5.852112 -0 46.58108 -0 -4.557736 0.1446488 18.26789 -3.549474 -2.648848 10.88847 0.211633 9.777418 -3.385324 0.1171514 24.33534 5.248079 2.652679 -18.53401 4.684818 4.071667 -20.15281 12.66502 80.64775 35.80145 -9.102392 -0 0 16.68161 -19.72581 12.50788 12.10099 4.13132 -18.11715 -1.950935 -92.7077 24.26256 23.94071 0 0 -15.19405 2.484104 11.82124 10.99724
8.432124 103.945 75.82424 4.210026 -3.74872 1.584376 -1.881333 33.39969 2.932325 0 -11.89234 0 -3.336154 -21.91568 7.583596 -0.8575945 -34.38649 -3.908896 -0 36.80119 -0 -4.125721 0.1090016 20.04921 -3.487999 -2.877369 10.9771 -0.08999761 9.695909 -3.127485 0.1175285 24.13708 5.170964 2.549815 -18.05914 4.59292 3.593672 -21.17247 12.53367 78.86904 35.2941 -6.50403 -0 0 18.74374 -21.63201 12.41692 13.2292 4.264896 -17.70444 -1.851648 -92.85099 23.91993 24.68419 0 0 -14.36797 2.09804 11.44197 11.3174
9.389586 102.8215 80.79845 3.868941 -3.566004 1.353128 -1.959226 36.04539 2.995886 0 -11.0032 0 -2.334211 -22.71714 7.858981 0.2657109 -36.49128 -2.517238 -0 27.52078 -0 -3.585038 -0.1439114 21.23264 -3.370073 -3.163326 10.99439 -0.3178104 9.625143 -2.989366 0.1532686 23.81703 5.166746 2.487248 -17.74681 4.615734 3.256588 -22.06292 12.36423 77.40139 34.68772 -4.353981 -0 0 20.56005 -23.3776 12.29147 14.2204 4.209144 -17.30656 -1.848241 -92.98869 23.6431 25.36489 0 0 -13.25471 1.662017 11.05923 11.76533
10.52528 101.7209 86.10561 3.665644 -3.407024 0.8922743 -2.497596 38.0168 3.438578 0 -8.686581 0 -1.338243 -22.67324 8.018378 0.4182933 -37.34003 -2.219318 -0 20.56967 -0 -2.896174 -0.6692195 21.79054 -3.43271 -3.543276 11.08437 -0.4993651 9.607561 -2.904681 0.2593778 23.47659 5.200138 2.496957 -17.55247 4.724468 3.118519 -22.71256 12.15767 76.40923 34.06451 -2.874154 -0 0 21.9447 -24.88906 12.18054 15.02826 3.98271 -16.93882 -1.906176 -93.1046 23.43124 25.95346 0 0 -11.92785 1.189408 10.6761 12.31542
